<?xml version="1.0" encoding="UTF-8" standalone="no"?>
<svg
   xmlns:dc="http://purl.org/dc/elements/1.1/"
   xmlns:cc="http://creativecommons.org/ns#"
   xmlns:rdf="http://www.w3.org/1999/02/22-rdf-syntax-ns#"
   xmlns:svg="http://www.w3.org/2000/svg"
   xmlns="http://www.w3.org/2000/svg"
   viewBox="0 0 793.33331 1122.6667"
   height="1122.6667"
   width="793.33331"
   xml:space="preserve"
   version="1.1"
   id="svg2"><metadata
     id="metadata8"><rdf:RDF><cc:Work
         rdf:about=""><dc:format>image/svg+xml</dc:format><dc:type
           rdf:resource="http://purl.org/dc/dcmitype/StillImage" /></cc:Work></rdf:RDF></metadata><defs
     id="defs6" /><g
     transform="matrix(1.3333333,0,0,-1.3333333,0,1122.6667)"
     id="g10"><g
       transform="scale(0.1)"
       id="g12"><path
         id="path14"
         style="fill:#272727;fill-opacity:1;fill-rule:nonzero;stroke:none"
         d="m 3060,3060 1260,0 c 173.97,46.61 277.21,225.43 230.6,399.4 -46.62,173.97 -225.44,277.21 -399.41,230.6" /><path
         id="path16"
         style="fill:none;stroke:#000000;stroke-width:25.20000076;stroke-linecap:butt;stroke-linejoin:miter;stroke-miterlimit:10;stroke-dasharray:none;stroke-opacity:1"
         d="m 3060,3060 1260,0 c 173.97,46.61 277.21,225.43 230.6,399.4 -46.62,173.97 -225.44,277.21 -399.41,230.6 L 3060,3060 Z" /><path
         id="path18"
         style="fill:#3b3b3b;fill-opacity:1;fill-rule:nonzero;stroke:none"
         d="m 3060,3060 1091.19,630 c 127.36,127.36 127.36,333.84 0,461.19 -127.35,127.36 -333.83,127.36 -461.19,0" /><path
         id="path20"
         style="fill:none;stroke:#000000;stroke-width:25.20000076;stroke-linecap:butt;stroke-linejoin:miter;stroke-miterlimit:10;stroke-dasharray:none;stroke-opacity:1"
         d="m 3060,3060 1091.19,630 c 127.36,127.36 127.36,333.84 0,461.19 -127.35,127.36 -333.83,127.36 -461.19,0 L 3060,3060 Z" /><path
         id="path22"
         style="fill:#4e4e4e;fill-opacity:1;fill-rule:nonzero;stroke:none"
         d="m 3060,3060 630,1091.19 c 46.61,173.97 -56.63,352.79 -230.6,399.41 -173.97,46.61 -352.79,-56.63 -399.4,-230.6" /><path
         id="path24"
         style="fill:none;stroke:#000000;stroke-width:25.20000076;stroke-linecap:butt;stroke-linejoin:miter;stroke-miterlimit:10;stroke-dasharray:none;stroke-opacity:1"
         d="m 3060,3060 630,1091.19 c 46.61,173.97 -56.63,352.79 -230.6,399.41 -173.97,46.61 -352.79,-56.63 -399.4,-230.6 l 0,-1260 z" /><path
         id="path26"
         style="fill:#626262;fill-opacity:1;fill-rule:nonzero;stroke:none"
         d="m 3060,3060 0,1260 c -46.61,173.97 -225.43,277.21 -399.4,230.6 -173.97,-46.62 -277.21,-225.44 -230.6,-399.41" /><path
         id="path28"
         style="fill:none;stroke:#000000;stroke-width:25.20000076;stroke-linecap:butt;stroke-linejoin:miter;stroke-miterlimit:10;stroke-dasharray:none;stroke-opacity:1"
         d="m 3060,3060 0,1260 c -46.61,173.97 -225.43,277.21 -399.4,230.6 -173.97,-46.62 -277.21,-225.44 -230.6,-399.41 L 3060,3060 Z" /><path
         id="path30"
         style="fill:#767676;fill-opacity:1;fill-rule:nonzero;stroke:none"
         d="m 3060,3060 -630,1091.19 c -127.36,127.36 -333.84,127.36 -461.19,0 -127.36,-127.35 -127.36,-333.83 0,-461.19" /><path
         id="path32"
         style="fill:none;stroke:#000000;stroke-width:25.20000076;stroke-linecap:butt;stroke-linejoin:miter;stroke-miterlimit:10;stroke-dasharray:none;stroke-opacity:1"
         d="m 3060,3060 -630,1091.19 c -127.36,127.36 -333.84,127.36 -461.19,0 -127.36,-127.35 -127.36,-333.83 0,-461.19 L 3060,3060 Z" /><path
         id="path34"
         style="fill:#898989;fill-opacity:1;fill-rule:nonzero;stroke:none"
         d="m 3060,3060 -1091.19,630 c -173.97,46.61 -352.79,-56.63 -399.41,-230.6 -46.61,-173.97 56.63,-352.79 230.6,-399.4" /><path
         id="path36"
         style="fill:none;stroke:#000000;stroke-width:25.20000076;stroke-linecap:butt;stroke-linejoin:miter;stroke-miterlimit:10;stroke-dasharray:none;stroke-opacity:1"
         d="m 3060,3060 -1091.19,630 c -173.97,46.61 -352.79,-56.63 -399.41,-230.6 -46.61,-173.97 56.63,-352.79 230.6,-399.4 l 1260,0 z" /><path
         id="path38"
         style="fill:#9d9d9d;fill-opacity:1;fill-rule:nonzero;stroke:none"
         d="m 3060,3060 -1260,0 c -173.97,-46.61 -277.21,-225.43 -230.6,-399.4 46.62,-173.97 225.44,-277.21 399.41,-230.6" /><path
         id="path40"
         style="fill:none;stroke:#000000;stroke-width:25.20000076;stroke-linecap:butt;stroke-linejoin:miter;stroke-miterlimit:10;stroke-dasharray:none;stroke-opacity:1"
         d="m 3060,3060 -1260,0 c -173.97,-46.61 -277.21,-225.43 -230.6,-399.4 46.62,-173.97 225.44,-277.21 399.41,-230.6 L 3060,3060 Z" /><path
         id="path42"
         style="fill:#b0b0b0;fill-opacity:1;fill-rule:nonzero;stroke:none"
         d="M 3060,3060 1968.81,2430 c -127.36,-127.36 -127.36,-333.84 0,-461.19 127.35,-127.36 333.83,-127.36 461.19,0" /><path
         id="path44"
         style="fill:none;stroke:#000000;stroke-width:25.20000076;stroke-linecap:butt;stroke-linejoin:miter;stroke-miterlimit:10;stroke-dasharray:none;stroke-opacity:1"
         d="M 3060,3060 1968.81,2430 c -127.36,-127.36 -127.36,-333.84 0,-461.19 127.35,-127.36 333.83,-127.36 461.19,0 L 3060,3060 Z" /><path
         id="path46"
         style="fill:#c4c4c4;fill-opacity:1;fill-rule:nonzero;stroke:none"
         d="M 3060,3060 2430,1968.81 c -46.61,-173.97 56.63,-352.79 230.6,-399.41 173.97,-46.61 352.79,56.63 399.4,230.6" /><path
         id="path48"
         style="fill:none;stroke:#000000;stroke-width:25.20000076;stroke-linecap:butt;stroke-linejoin:miter;stroke-miterlimit:10;stroke-dasharray:none;stroke-opacity:1"
         d="M 3060,3060 2430,1968.81 c -46.61,-173.97 56.63,-352.79 230.6,-399.41 173.97,-46.61 352.79,56.63 399.4,230.6 l 0,1260 z" /><path
         id="path50"
         style="fill:#d8d8d8;fill-opacity:1;fill-rule:nonzero;stroke:none"
         d="m 3060,3060 0,-1260 c 46.61,-173.97 225.43,-277.21 399.4,-230.6 173.97,46.62 277.21,225.44 230.6,399.41" /><path
         id="path52"
         style="fill:none;stroke:#000000;stroke-width:25.20000076;stroke-linecap:butt;stroke-linejoin:miter;stroke-miterlimit:10;stroke-dasharray:none;stroke-opacity:1"
         d="m 3060,3060 0,-1260 c 46.61,-173.97 225.43,-277.21 399.4,-230.6 173.97,46.62 277.21,225.44 230.6,399.41 L 3060,3060 Z" /><path
         id="path54"
         style="fill:#ececec;fill-opacity:1;fill-rule:nonzero;stroke:none"
         d="m 3060,3060 630,-1091.19 c 127.36,-127.36 333.84,-127.36 461.19,0 127.36,127.35 127.36,333.83 0,461.19" /><path
         id="path56"
         style="fill:none;stroke:#000000;stroke-width:25.20000076;stroke-linecap:butt;stroke-linejoin:miter;stroke-miterlimit:10;stroke-dasharray:none;stroke-opacity:1"
         d="m 3060,3060 630,-1091.19 c 127.36,-127.36 333.84,-127.36 461.19,0 127.36,127.35 127.36,333.83 0,461.19 L 3060,3060 Z" /><path
         id="path58"
         style="fill:#ffffff;fill-opacity:1;fill-rule:nonzero;stroke:none"
         d="m 3060,3060 1091.19,-630 c 173.97,-46.61 352.79,56.63 399.41,230.6 46.61,173.97 -56.63,352.79 -230.6,399.4" /><path
         id="path60"
         style="fill:none;stroke:#000000;stroke-width:25.20000076;stroke-linecap:butt;stroke-linejoin:miter;stroke-miterlimit:10;stroke-dasharray:none;stroke-opacity:1"
         d="m 3060,3060 1091.19,-630 c 173.97,-46.61 352.79,56.63 399.41,230.6 46.61,173.97 -56.63,352.79 -230.6,399.4 l -1260,0 z" /></g></g></svg>